<?xml version="1.0" encoding="UTF-8"?><svg xmlns="http://www.w3.org/2000/svg" xmlns:xlink="http://www.w3.org/1999/xlink" viewBox="0 0 223.37 253.5"><defs><style>.g{opacity:.74;}.h{fill:#253746;}.i{opacity:.39;}.i,.j,.k,.l{fill:#fff;}.j{opacity:.23;}.k{opacity:.3;}.m{fill:url(#f);}.n{fill:url(#d);}.o{fill:url(#e);}.l{opacity:.58;}</style><linearGradient id="d" x1="30.5" y1="122.48" x2="210.67" y2="122.48" gradientTransform="translate(40.33 -27.95) rotate(16.69)" gradientUnits="userSpaceOnUse"><stop offset="0" stop-color="#00a9e0"/><stop offset=".34" stop-color="#2dccd3"/><stop offset=".67" stop-color="#2cd5c4"/><stop offset=".94" stop-color="#26d07c"/></linearGradient><linearGradient id="e" x1="65.48" y1="76.98" x2="105.94" y2="76.98" xlink:href="#d"/><linearGradient id="f" x1="1.98" y1="399.88" x2="189.24" y2="220.57" gradientTransform="translate(116.47 -213.86) rotate(16.73)" xlink:href="#d"/></defs><g id="a"/><g id="b"><g id="c"><g><g><g><polygon class="n" points="203.12 162.62 202.91 162.45 161.69 129.22 43.8 252.72 43.65 252.88 43.14 252.45 9.43 223.85 9.04 222.64 2.79 203.41 16.39 214.95 36.37 231.91 36.56 231.7 154.41 108.24 195.78 141.59 195.84 141.64 195.86 141.51 212.55 25.38 216.04 1.06 215.93 .61 222.79 21.57 223.21 22.83 203.12 162.62"/><polygon class="o" points="118.83 79.08 110.69 87.61 91.22 71.92 90.84 70.72 84.82 51.66 102.89 66.23 118.83 79.08"/></g><polygon class="m" points="216.12 1.13 195.82 141.69 154.41 108.27 36.29 231.85 1.24 202.07 118.86 79.08 82.84 50.01 215.97 .52 216.12 1.13"/><g class="g"><polygon class="h" points="203.12 162.62 202.91 162.45 161.69 129.22 43.8 252.72 43.65 252.88 43.14 252.45 9.43 223.85 9.04 222.64 2.79 203.41 16.39 214.95 36.37 231.91 36.56 231.7 154.41 108.24 195.78 141.59 195.84 141.64 195.86 141.51 212.55 25.38 216.04 1.06 215.93 .61 222.79 21.57 223.21 22.83 203.12 162.62"/><polygon class="h" points="118.83 79.08 110.69 87.61 91.22 71.92 90.84 70.72 84.82 51.66 102.89 66.23 118.83 79.08"/></g><g><path class="h" d="M223.17,21.42c.32,1.28,.02,1.39-.56,.21-.32-1.28-.02-1.38,.56-.21h0Z"/><path class="h" d="M223.32,22.03c-5.86,44.18-13.07,96.56-19.33,140.7l-.22,1.55-1.22-.98-41.49-33.33,1.32-.09c-36.98,38.74-81.17,84.82-118.43,123.3l-.29,.3-.32-.28-33.49-28.95h0v-.02h0s-1.32-1.12-1.29-1.13l.62-.63-.6,.65c-.03-.06,1.32,1.09,1.32,1.08-.03-.01,34.03,28.32,34.03,28.33l-.61,.03c14.63-15.53,44.04-46.64,58.71-62.12,14.99-15.79,44.54-46.81,59.56-62.56l.7,.57,41.37,33.47-1.43,.57,5.1-34.8c4.66-31.52,11.11-74.18,15.98-105.66h0Z"/><path class="h" d="M90.54,70.84l-.43,.25,.02-.15c3.72,2.08,7.72,5.03,11.24,7.89,3.3,2.72,6.49,5.54,9.32,8.78-1.9-1.03-3.69-2.2-5.44-3.42-5.45-3.84-10.94-8.4-15.22-13.12l-.11-.13c.08,0,.53-.1,.62-.11h0Z"/><path class="h" d="M215.89,.45S96.69,45.82,98.65,44.42l-.05,.34-.32,.12-15.23,5.72,.14-1.06,36.11,28.95,.64,.51-.57,.59c.05,.03-117.76,123.57-117.27,123.09l-.18-1.29c.32,.29,1.61,1.34,1.9,1.61,0,0-.07,.53-.07,.54l-.34-.88,33.6,28.5-1.36,.06,118.19-123.53,.5-.52,.55,.45c-.5-.05,42.53,34.1,40.96,33.34h0l.17,.02,.13,.11,.05,.04,.06,.05,.05,.06h0l-1.12,.31,10.37-70.26L216.04,1.06c-4.88,35.09-14.62,105.6-19.58,140.66l-.21,1.48-.91-1.19s.1,.1,.1,.1c.99,.8-41.45-33.22-41.52-33.27l1.05-.07L37.08,232.59l-.64,.67-.72-.61L2.16,204.16l-.41-.35,.07-.53s.34,.87,.34,.87l-1.49-1.26-.67-.57,.5-.72c-.1-.05,117.8-122.96,117.79-123.03l.07,1.11-35.94-29.15-.85-.69,.99-.37,15.32-5.65C95.47,44.67,215.88,.46,215.89,.45h0Z"/><path class="h" d="M215.99,0c3.75,7.58,6.26,15.76,7.38,24.14-3.76-7.57-6.25-15.76-7.38-24.14h0Z"/><path class="h" d="M195.61,141.09c3.92,6.87,6.63,14.42,7.95,22.22-3.93-6.87-6.62-14.42-7.95-22.22h0Z"/><path class="h" d="M36.04,231.05c3.92,6.87,6.63,14.42,7.95,22.22-3.93-6.87-6.62-14.42-7.95-22.22h0Z"/><path class="h" d="M.98,201.74c4.22,6.93,7.25,14.56,8.91,22.51-4.23-6.93-7.24-14.57-8.91-22.51H.98Z"/><path class="h" d="M83.05,49.92c3.92,6.87,6.63,14.42,7.95,22.22-3.93-6.87-6.62-14.42-7.95-22.22h0Z"/></g><path class="k" d="M177.7,14.68s-.02,.05-.03,.08c-3.67,9.64-13.46,21.23-27.06,30.88-21.59,15.3-44.59,19.95-51.39,10.37-2.14-3-2.41-7.05-1.14-11.66h0L177.7,14.68Z"/><ellipse class="i" cx="126.47" cy="69.38" rx="3.54" ry="3.1" transform="translate(51.36 192.53) rotate(-87.37)"/><ellipse class="i" cx="130.88" cy="74.01" rx="3.54" ry="3.1" transform="translate(50.94 201.36) rotate(-87.37)"/><ellipse class="j" cx="123.4" cy="136.58" rx="3.54" ry="3.1" transform="translate(-18.7 253.57) rotate(-87.37)"/><ellipse class="l" cx="128.16" cy="101.5" rx="14.72" ry=".78" transform="translate(20.89 224.86) rotate(-87.37)"/></g><g><path class="h" d="M49.89,195.63l-2.19-2.03,1.54-1.66-8.25-7.67-1.54,1.66-2.19-2.03,5.69-6.13,2.19,2.03-1.54,1.66,8.25,7.67,1.54-1.66,2.19,2.03-5.7,6.13Z"/><path class="h" d="M52.49,172.39l10.19,9.46-2.61,2.81-10.19-9.46-3.24,3.49-2.45-2.27,9.09-9.79,2.44,2.27-3.24,3.49Z"/><path class="h" d="M58.37,161.89l.38,.35c1.41,1.31,2.07,3.58,1.88,5.49l-1.6,1.72c.03-1.48-.14-2.75-.78-3.88-.88,.66-1.75,.51-2.38-.08l-.45-.42c-.74-.69-.86-1.69,.17-2.8s2.04-1.07,2.78-.38Z"/><path class="h" d="M69.93,170.39l-.11-3.54c1.77,.02,3.28-.63,4.45-1.89,1.27-1.37,1.29-2.59,.37-3.44-.69-.64-1.47-.81-2.75,.24l-1.35,1.12c-2.87,2.4-5.32,2.42-7.44,.46-2.26-2.1-2.16-5.37,.66-8.4,1.8-1.94,3.81-2.83,5.92-2.82l.12,3.58c-1.27-.05-2.53,.33-3.77,1.66-1.17,1.26-1.26,2.3-.5,3.01,.87,.81,1.62,.65,2.78-.27l1.38-1.09c2.87-2.25,5.21-2.45,7.38-.44,2.43,2.25,2.43,5.63-.56,8.84-2.09,2.25-4.37,3-6.59,3Z"/><path class="h" d="M87.83,138.14l-.05,.06,.97,2.66,2.14,6.67-6.73-1.68-2.9-.87-.05,.06,8.42,7.82-2.45,2.64-12.64-11.73,2.76-2.97,8.85,2.34,.03-.04-3.02-8.62,2.78-2.99,12.64,11.73-2.45,2.64-8.29-7.7Z"/><path class="h" d="M101.22,140.35l-12.64-11.73,8.15-8.77,2.44,2.27-5.54,5.97,2.59,2.4,4.75-5.12,2.43,2.25-4.75,5.12,2.73,2.54,5.54-5.97,2.44,2.27-8.15,8.77Z"/><path class="h" d="M108.55,124.47l-5.95-3.91-3.51-3.26,2.68-2.88,3.51,3.26,4.35,5.62-1.08,1.16Zm1.81,3.71l-.43-.4c-.78-.72-.93-1.76,.15-2.92s2.12-1.09,2.9-.37l.43,.4c.78,.72,.93,1.76-.15,2.92-1.08,1.16-2.12,1.09-2.9,.37Z"/><path class="h" d="M114.04,118.56l-5.95-3.91-3.51-3.26,2.67-2.88,3.51,3.26,4.35,5.62-1.08,1.16Zm1.81,3.71l-.43-.4c-.78-.72-.93-1.76,.15-2.92s2.12-1.09,2.9-.37l.43,.4c.78,.72,.93,1.76-.15,2.92-1.08,1.16-2.12,1.09-2.9,.37Z"/></g></g></g></g></svg>